<svg width="512" height="512" viewBox="0 0 512 512" fill="none" xmlns="http://www.w3.org/2000/svg">
<g clip-path="url(#clip0_121_2)">
<circle cx="256" cy="256" r="256" fill="#C60800"/>
<path d="M259.5 435.75C227.7 435.75 200.325 428.25 177.375 413.25C154.575 398.25 137.025 378 124.725 352.5C112.575 327 106.5 298.5 106.5 267C106.5 233.55 112.725 204.15 125.175 178.8C137.625 153.45 155.25 133.725 178.05 119.625C201 105.375 228.15 98.25 259.5 98.25C298.2 98.25 330.225 107.925 355.575 127.275C380.925 146.625 397.65 174 405.75 209.4L344.55 217.95C339.15 199.2 329.325 184.2 315.075 172.95C300.975 161.7 283.8 156 263.55 155.85C246.45 155.55 231.6 158.85 219 165.75C206.4 172.65 196.2 182.325 188.4 194.775C180.6 207.225 175.35 221.7 172.65 238.2H286.5V295.35H173.1C174.45 304.5 176.7 313.425 179.85 322.125C183 330.675 187.35 338.55 192.9 345.75C200.85 356.55 211.125 364.575 223.725 369.825C236.325 375.075 249.6 377.85 263.55 378.15C283.35 378.3 300.225 372.75 314.175 361.5C328.275 350.25 338.1 336 343.65 318.75L403.5 333.6C396.6 356.55 386.475 375.6 373.125 390.75C359.925 405.9 343.725 417.225 324.525 424.725C305.475 432.075 283.8 435.75 259.5 435.75Z" fill="white"/>
</g>
<defs>
<clipPath id="clip0_121_2">
<rect width="512" height="512" fill="white"/>
</clipPath>
</defs>
</svg>
